<?xml version="1.0" encoding="UTF-8" standalone="no"?>
<!-- Created with Inkscape (http://www.inkscape.org/) -->

<svg
   xmlns:dc="http://purl.org/dc/elements/1.1/"
   xmlns:cc="http://creativecommons.org/ns#"
   xmlns:rdf="http://www.w3.org/1999/02/22-rdf-syntax-ns#"
   xmlns:svg="http://www.w3.org/2000/svg"
   xmlns="http://www.w3.org/2000/svg"
   xmlns:sodipodi="http://sodipodi.sourceforge.net/DTD/sodipodi-0.dtd"
   xmlns:inkscape="http://www.inkscape.org/namespaces/inkscape"
   version="1.1"
   id="svg3752"
   xml:space="preserve"
   width="645.5"
   height="353.6842"
   viewBox="0 0 645.5 353.6842"
   sodipodi:docname="diffDist.svg"
   inkscape:version="0.92.0 r15299"><metadata
     id="metadata3758"><rdf:RDF><cc:Work
         rdf:about=""><dc:format>image/svg+xml</dc:format><dc:type
           rdf:resource="http://purl.org/dc/dcmitype/StillImage" /><dc:title></dc:title></cc:Work></rdf:RDF></metadata><defs
     id="defs3756"><clipPath
       clipPathUnits="userSpaceOnUse"
       id="clipPath3772"><path
         d="M 59.04,73.44 H 500.76 V 282.21 H 59.04 Z"
         id="path3770"
         inkscape:connector-curvature="0" /></clipPath><clipPath
       clipPathUnits="userSpaceOnUse"
       id="clipPath3782"><path
         d="M 0,0 H 531 V 341.25 H 0 Z"
         id="path3780"
         inkscape:connector-curvature="0" /></clipPath><clipPath
       clipPathUnits="userSpaceOnUse"
       id="clipPath3800"><path
         d="M 59.04,73.44 H 500.76 V 282.21 H 59.04 Z"
         id="path3798"
         inkscape:connector-curvature="0" /></clipPath><clipPath
       clipPathUnits="userSpaceOnUse"
       id="clipPath3814"><path
         d="M 0,0 H 531 V 341.25 H 0 Z"
         id="path3812"
         inkscape:connector-curvature="0" /></clipPath></defs><sodipodi:namedview
     pagecolor="#ffffff"
     bordercolor="#666666"
     borderopacity="1"
     objecttolerance="10"
     gridtolerance="10"
     guidetolerance="10"
     inkscape:pageopacity="0"
     inkscape:pageshadow="2"
     inkscape:window-width="1920"
     inkscape:window-height="1018"
     id="namedview3754"
     showgrid="false"
     inkscape:zoom="1.52"
     inkscape:cx="265.66528"
     inkscape:cy="94.244267"
     inkscape:window-x="-8"
     inkscape:window-y="-8"
     inkscape:window-maximized="1"
     inkscape:current-layer="g3760" /><g
     id="g3760"
     inkscape:groupmode="layer"
     inkscape:label="Rplot"
     transform="matrix(1.3333333,0,0,-1.3333333,-1.3157831,456.31578)"><g
       id="g3762"
       transform="matrix(0.91172316,0,0,0.77732793,0.98683733,76.973688)"><path
         d="M 0,0 H 531 V 341.25 H 0 Z"
         style="fill:#ffffff;fill-opacity:1;fill-rule:nonzero;stroke:none"
         id="path3764"
         inkscape:connector-curvature="0" /></g><g
       id="g3766"
       transform="translate(-32.56579,41.447369)"><g
         id="g3768"
         clip-path="url(#clipPath3772)"><path
           d="m 7.23,81.17 h 1 1 1 1.01 1 1 1 1 1 1 1 1 1 1 1 1 1 1 1 1 1 1 1 1.01 1 1 1 1 1 1 1 1 1 1 1 1 1 1 1 1 1 1 1 1 1.01 1 1 1 1 1 1 1 1 1 1 1 1 1 1 1 1 1 1 1 1.01 1 1 1 1 1 1 1 1 1 1 1 1 1 1 1 1 1 1 1 1 1.01 1 1 1 1 1 1 1 1 1 1 1 1 1 1 1 1 1 1 1 1.01 1 1 1 1 1 1 1 1 1 1 1 l 1,0.01 h 1 1 1 1 1 l 1,0.01 h 1 1 l 1.01,0.01 1,0.01 1,0.01 1,0.01 1,0.01 1,0.02 1,0.02 1,0.02 1,0.03 1,0.03 1,0.04 1,0.05 1,0.06 1,0.06 1,0.08 1,0.08 1,0.1 1,0.11 1,0.14 1,0.14 1.01,0.17 1,0.19 1,0.2 1,0.24 1,0.26 1,0.28 1,0.32 1,0.33 1,0.37 1,0.41 1,0.44 1,0.47 1,0.49 1,0.53 1,0.57 1,0.61 1,0.63 1,0.66 1,0.7 1,0.72 1.01,0.76 1,0.79 1,0.81 1,0.84 1,0.87 1,0.89 1,0.91 1,0.94 1,0.95 1,0.98 1,0.99 1,1.01 1,1.03 1,1.04 1,1.05 1,1.07 1,1.07 1,1.08 1,1.09 1,1.09 1,1.09 1.01,1.1 1,1.09 1,1.09 1,1.08 1,1.08 1,1.07 1,1.07 1,1.06 1,1.05 1,1.06 1,1.05 1,1.06 1,1.07 1,1.09 1,1.1 1,1.14 1,1.18 1,1.22 1,1.29 1,1.34 1.01,1.42 1,1.53 1,1.62 1,1.73 1,1.84 1,1.97 1,2.12 1,2.27 1,2.42 1,2.55 1,2.71 1,2.88 1,3.04 1,3.2 1,3.33 1,3.47 1,3.61 1,3.76 1,3.86 1,3.96 1,4.05 1.01,4.12 1,4.2 1,4.24 1,4.26 1,4.27 1,4.27 1,4.24 1,4.19 1,4.13 1,4.06 1,3.97 1,3.84 1,3.7 1,3.54 1,3.39 1,3.22 1,3.02 1,2.77 1,2.55 1,2.32 1.01,2.09 1,1.85 1,1.54 1,1.28 1,1.03 1,0.78 1,0.54 1,0.27 1,0.01 1,-0.2 1,-0.4 1,-0.57 1,-0.75 1,-0.91 1,-1.02 1,-1.12 1,-1.18 1,-1.23 1,-1.25 1,-1.26 1,-1.23 1.01,-1.2 1,-1.15 1,-1.08 1,-1.01 1,-0.93 1,-0.87 1,-0.8 1,-0.73 1,-0.68 1,-0.63 1,-0.62 1,-0.61 1,-0.63 1,-0.66 1,-0.72 1,-0.79 1,-0.88 1,-0.98 1,-1.13 1,-1.27 1.01,-1.41 1,-1.56 1,-1.71 1,-1.88 1,-2.07 1,-2.2 1,-2.35 1,-2.48 1,-2.6 1,-2.74 1,-2.84 1,-2.92 1,-2.98 1,-3.05 1,-3.1 1,-3.13 1,-3.16 1,-3.16 1,-3.16 1,-3.16 1,-3.14 1.01,-3.12 1,-3.09 1,-3.08 1,-3.04 1,-3 1,-2.96 1,-2.94 1,-2.89 1,-2.86 1,-2.8 1,-2.76 1,-2.71 1,-2.67 1,-2.61 1,-2.56 1,-2.49 1,-2.43 1,-2.38 1,-2.31 1,-2.24 1.01,-2.16 1,-2.1 1,-2.04 1,-1.97 1,-1.9 1,-1.83 1,-1.77 1,-1.72 1,-1.66 1,-1.62 1,-1.56 1,-1.52 1,-1.48 1,-1.45 1,-1.42 1,-1.39 1,-1.35 1,-1.33 1,-1.31 1,-1.29 1.01,-1.26 1,-1.23 1,-1.21 1,-1.18 1,-1.15 1,-1.12 1,-1.08 1,-1.04 1,-1.01 1,-0.97 1,-0.92 1,-0.88 1,-0.83 1,-0.78 1,-0.74 1,-0.69 1,-0.65 1,-0.58 1,-0.55 1,-0.5 1,-0.46 1.01,-0.41 1,-0.38 1,-0.33 1,-0.3 1,-0.27 1,-0.24 1,-0.21 1,-0.18 1,-0.16 1,-0.14 1,-0.12 1,-0.11 1,-0.08 1,-0.08 1,-0.06 1,-0.06 1,-0.04 1,-0.04 1,-0.03 1,-0.03 1.01,-0.02 1,-0.02 1,-0.01 1,-0.01 1,-0.01 1,-0.01 1,-0.01 h 1 1 l 1,-0.01 h 1 1 1 1 l 1,-0.01 h 1 1 1 1 1 1 1.01 1 1 1 1 1 1 1 1 1 1 1 1 1 1 1 1 1 1 1 1.01 1 1 1 1 1 1 1 1 1 1 1 1 1 1 1 1 1 1 1 1 1.01 1 1 1 1 1 1 1 1 1 1 1 1 1 1 1 1 1 1 1 1.01 1 1 1 1 1 1 1 1 1 1 1 1 1 1 1 1 1 1 1 1.01 1 1 1 1 1 1 1 1 1 1 1 1 1 1 1 1 1"
           style="fill:none;stroke:#0000ff;stroke-width:1.5;stroke-linecap:round;stroke-linejoin:round;stroke-miterlimit:10;stroke-dasharray:none;stroke-opacity:1"
           id="path3774"
           inkscape:connector-curvature="0" /></g></g><g
       id="g3776"
       transform="translate(-32.56579,41.447369)"><g
         id="g3778"
         clip-path="url(#clipPath3782)"><path
           d="M 59.04,73.44 H 500.76 V 282.21 H 59.04 V 73.44"
           style="fill:none;stroke:#000000;stroke-width:0.75;stroke-linecap:round;stroke-linejoin:round;stroke-miterlimit:10;stroke-dasharray:none;stroke-opacity:1"
           id="path3784"
           inkscape:connector-curvature="0" /><text
           transform="matrix(1,0,0,-1,233.88,53.28)"
           style="font-variant:normal;font-weight:normal;font-size:12px;font-family:Helvetica;-inkscape-font-specification:Helvetica;writing-mode:lr-tb;fill:#000000;fill-opacity:1;fill-rule:nonzero;stroke:none"
           id="text3788"><tspan
             x="0 9.3360004 16.007999 22.68 29.351999 32.688 40.692001 46.692001 53.363998 57.360001 64.031998 70.031998 76.031998 78.695999 85.367996"
             y="0"
             sodipodi:role="line"
             id="tspan3786"
             style="font-style:normal;font-variant:normal;font-weight:normal;font-stretch:normal;font-family:Arial;-inkscape-font-specification:Arial">Gene Expression</tspan></text>
<text
           transform="matrix(0,1,1,0,47.52,157.82)"
           style="font-variant:normal;font-weight:normal;font-size:12px;font-family:Helvetica;-inkscape-font-specification:Helvetica;writing-mode:lr-tb;fill:#000000;fill-opacity:1;fill-rule:nonzero;stroke:none"
           id="text3792"><tspan
             x="0 8.6639996 15.336 22.007999 28.007999 30.672001 34.007999"
             y="0"
             sodipodi:role="line"
             id="tspan3790"
             style="font-style:normal;font-variant:normal;font-weight:normal;font-stretch:normal;font-family:Arial;-inkscape-font-specification:Arial">Density</tspan></text>
</g></g><g
       id="g3794"
       transform="translate(-32.56579,41.447369)"><g
         id="g3796"
         clip-path="url(#clipPath3800)"><path
           d="m 7.23,81.17 1,0.01 h 1 1 1.01 1 1 1 1 1 1 1 1 1 1 1 1 l 1,0.01 h 1 1 1 1 1 l 1,0.01 h 1.01 1 1 l 1,0.01 h 1 1 l 1,0.01 h 1 l 1,0.01 h 1 l 1,0.01 h 1 l 1,0.01 h 1 l 1,0.01 1,0.01 1,0.01 1,0.01 h 1 l 1,0.01 1,0.02 1.01,0.01 1,0.01 1,0.01 1,0.02 1,0.02 1,0.01 1,0.02 1,0.02 1,0.02 1,0.02 1,0.03 1,0.02 1,0.03 1,0.03 1,0.03 1,0.04 1,0.03 1,0.04 1,0.04 1,0.05 1.01,0.04 1,0.05 1,0.06 1,0.05 1,0.06 1,0.07 1,0.06 1,0.08 1,0.07 1,0.08 1,0.09 1,0.08 1,0.1 1,0.1 1,0.11 1,0.11 1,0.12 1,0.12 1,0.13 1,0.14 1,0.15 1.01,0.15 1,0.16 1,0.17 1,0.18 1,0.19 1,0.2 1,0.2 1,0.22 1,0.23 1,0.23 1,0.25 1,0.26 1,0.27 1,0.28 1,0.3 1,0.31 1,0.32 1,0.33 1,0.35 1,0.36 1.01,0.38 1,0.4 1,0.4 1,0.43 1,0.43 1,0.46 1,0.47 1,0.49 1,0.51 1,0.52 1,0.54 1,0.56 1,0.57 1,0.6 1,0.61 1,0.63 1,0.65 1,0.67 1,0.69 1,0.7 1,0.73 1.01,0.75 1,0.76 1,0.79 1,0.79 1,0.83 1,0.84 1,0.86 1,0.88 1,0.88 1,0.92 1,0.93 1,0.95 1,0.96 1,0.98 1,1 1,1.01 1,1.03 1,1.04 1,1.05 1,1.07 1.01,1.08 1,1.09 1,1.1 1,1.11 1,1.12 1,1.13 1,1.13 1,1.14 1,1.15 1,1.15 1,1.15 1,1.16 1,1.15 1,1.16 1,1.15 1,1.15 1,1.15 1,1.14 1,1.14 1,1.12 1.01,1.12 1,1.11 1,1.1 1,1.08 1,1.06 1,1.06 1,1.03 1,1.02 1,1 1,0.97 1,0.96 1,0.92 1,0.91 1,0.88 1,0.85 1,0.83 1,0.78 1,0.78 1,0.72 1,0.7 1,0.67 1.01,0.62 1,0.6 1,0.55 1,0.52 1,0.49 1,0.43 1,0.42 1,0.35 1,0.33 1,0.28 1,0.23 1,0.21 1,0.15 1,0.11 1,0.07 1,0.03 1,-0.01 1,-0.07 1,-0.09 1,-0.15 1.01,-0.19 1,-0.22 1,-0.28 1,-0.3 1,-0.36 1,-0.39 1,-0.43 1,-0.47 1,-0.5 1,-0.56 1,-0.58 1,-0.62 1,-0.66 1,-0.68 1,-0.73 1,-0.75 1,-0.78 1,-0.82 1,-0.83 1,-0.88 1,-0.9 1.01,-0.92 1,-0.95 1,-0.96 1,-0.99 1,-1.01 1,-1.03 1,-1.04 1,-1.06 1,-1.08 1,-1.09 1,-1.1 1,-1.11 1,-1.11 1,-1.13 1,-1.13 1,-1.14 1,-1.15 1,-1.14 1,-1.15 1,-1.14 1.01,-1.15 1,-1.14 1,-1.14 1,-1.13 1,-1.13 1,-1.12 1,-1.11 1,-1.1 1,-1.09 1,-1.09 1,-1.07 1,-1.06 1,-1.04 1,-1.03 1,-1.01 1,-1 1,-0.98 1,-0.96 1,-0.94 1,-0.93 1,-0.9 1.01,-0.9 1,-0.86 1,-0.84 1,-0.83 1,-0.8 1,-0.78 1,-0.75 1,-0.74 1,-0.71 1,-0.69 1,-0.67 1,-0.63 1,-0.62 1,-0.59 1,-0.56 1,-0.55 1,-0.51 1,-0.5 1,-0.47 1,-0.44 1.01,-0.42 1,-0.39 1,-0.37 1,-0.34 1,-0.31 1,-0.3 1,-0.26 1,-0.24 1,-0.22 1,-0.19 1,-0.17 1,-0.13 1,-0.12 1,-0.09 1,-0.06 1,-0.05 1,-0.01 h 1 l 1,0.04 1,0.06 1,0.08 1.01,0.11 1,0.13 1,0.16 1,0.18 1,0.21 1,0.23 1,0.24 1,0.29 1,0.3 1,0.32 1,0.36 1,0.36 1,0.4 1,0.42 1,0.44 1,0.47 1,0.48 1,0.52 1,0.53 1,0.56 1.01,0.58 1,0.59 1,0.63 1,0.64 1,0.66 1,0.69 1,0.7 1,0.73 1,0.74 1,0.77 1,0.78 1,0.8 1,0.82 1,0.83 1,0.86 1,0.87 1,0.88 1,0.9 1,0.92 1,0.93 1.01,0.94 1,0.96 1,0.97 1,0.97 1,0.99 1,1 1,1.01 1,1.02 1,1.02 1,1.03 1,1.03 1,1.04 1,1.04 1,1.05 1,1.04 1,1.05 1,1.04 1,1.05 1,1.04 1,1.03 1,1.04 1.01,1.02 1,1.02 1,1.01 1,1 1,0.99 1,0.97 1,0.97 1,0.95 1,0.93 1,0.93 1,0.89 1,0.89 1,0.86 1,0.84 1,0.83 1,0.79 1,0.78 1,0.75 1,0.72 1,0.7 1.01,0.67 1,0.65 1,0.6 1,0.58 1,0.56 1,0.51 1,0.5 1,0.45 1,0.42 1,0.39 1,0.35 1,0.33 1,0.27 1,0.25 1,0.21 1,0.17 1,0.15 1,0.09 1,0.07 1,0.03 1,-0.02 1.01,-0.03 1,-0.1 1,-0.11 1,-0.16 1,-0.19 1,-0.23 1,-0.27 1,-0.29 1,-0.34 1,-0.37 1,-0.39 1,-0.45 1,-0.46 1,-0.5 1,-0.53 1,-0.56 1,-0.6 1,-0.61 1,-0.65 1,-0.68 1.01,-0.7 1,-0.73 1,-0.74 1,-0.79 1,-0.79 1,-0.82 1,-0.85 1,-0.85 1,-0.88 1,-0.9 1,-0.91 1,-0.93 1,-0.94 1,-0.96 1,-0.96 1,-0.98 1,-0.99 1,-1 1,-1 1,-1.01 1,-1.02 1.01,-1.02 1,-1.03 1,-1.03 1,-1.03 1,-1.03 1,-1.03 1,-1.03 1,-1.03 1,-1.03 1,-1.02 1,-1.02 1,-1.01 1,-1 1,-1 1,-0.99 1,-0.99 1,-0.97 1,-0.97 1,-0.96 1,-0.94 1.01,-0.93 1,-0.92 1,-0.91 1,-0.9 1,-0.88 1,-0.88 1,-0.85 1,-0.85 1,-0.83 1,-0.81 1,-0.8 1,-0.78 1,-0.77 1,-0.76 1,-0.73 1,-0.73 1,-0.7 1,-0.69 1,-0.68 1,-0.66 1.01,-0.65 1,-0.62 1,-0.61 1,-0.6 1,-0.58 1,-0.57 1,-0.54 1,-0.54 1,-0.52 1,-0.5 1,-0.49 1,-0.48 1,-0.46 1,-0.44 1,-0.44 1,-0.42 1,-0.4 1,-0.39"
           style="fill:none;stroke:#ff0000;stroke-width:1.5;stroke-linecap:round;stroke-linejoin:round;stroke-miterlimit:10;stroke-dasharray:0, 6;stroke-dashoffset:0;stroke-opacity:1"
           id="path3802"
           inkscape:connector-curvature="0" /><path
           d="M 274.29,73.44 V 282.21"
           style="fill:none;stroke:#0000ff;stroke-width:1.5;stroke-linecap:round;stroke-linejoin:round;stroke-miterlimit:10;stroke-dasharray:9, 6;stroke-dashoffset:0;stroke-opacity:1"
           id="path3804"
           inkscape:connector-curvature="0" /><path
           d="M 314.95,73.44 V 282.21"
           style="fill:none;stroke:#ff0000;stroke-width:1.5;stroke-linecap:round;stroke-linejoin:round;stroke-miterlimit:10;stroke-dasharray:9, 6;stroke-dashoffset:0;stroke-opacity:1"
           id="path3806"
           inkscape:connector-curvature="0" /></g></g><g
       id="g3808"
       transform="translate(-32.56579,41.447369)"><g
         id="g3810"
         clip-path="url(#clipPath3814)"><text
           transform="scale(1,-1)"
           style="font-variant:normal;font-weight:normal;font-size:12px;font-family:Helvetica;-inkscape-font-specification:Helvetica;writing-mode:lr-tb;fill:#ff0000;fill-opacity:1;fill-rule:nonzero;stroke:none"
           id="text3818"
           x="302.76422"
           y="-285.87552"><tspan
             x="302.76422 312.76022 319.43222 326.10422"
             y="-285.87552"
             sodipodi:role="line"
             id="tspan3816"
             style="font-style:normal;font-variant:normal;font-weight:normal;font-stretch:normal;font-family:Arial;-inkscape-font-specification:Arial">Mean</tspan></text>
<text
           transform="scale(1,-1)"
           style="font-variant:normal;font-weight:normal;font-size:12px;font-family:Helvetica;-inkscape-font-specification:Helvetica;writing-mode:lr-tb;fill:#0000ff;fill-opacity:1;fill-rule:nonzero;stroke:none"
           id="text3822"
           x="258.47552"
           y="-285.87552"><tspan
             x="258.47552 268.47153 275.14352 281.81552"
             y="-285.87552"
             sodipodi:role="line"
             id="tspan3820"
             style="font-style:normal;font-variant:normal;font-weight:normal;font-stretch:normal;font-family:Arial;-inkscape-font-specification:Arial">Mean</tspan></text>
</g></g></g></svg>